<mxfile host="app.diagrams.net" agent="Mozilla/5.0 (Windows NT 10.0; Win64; x64) AppleWebKit/537.36 (KHTML, like Gecko) Chrome/136.0.0.0 Safari/537.36" version="27.0.9">
  <diagram id="R2lEEEUBdFMjLlhIrx00" name="Page-1">
    <mxGraphModel dx="2076" dy="1761" grid="1" gridSize="10" guides="1" tooltips="1" connect="1" arrows="1" fold="1" page="1" pageScale="1" pageWidth="850" pageHeight="1100" math="0" shadow="0" extFonts="Permanent Marker^https://fonts.googleapis.com/css?family=Permanent+Marker">
      <root>
        <mxCell id="0" />
        <mxCell id="1" parent="0" />
        <mxCell id="dyT2JQhfOkfs-Pqw11Wl-1" value="Jugador j1" style="whiteSpace=wrap;html=1;align=center;" parent="1" vertex="1">
          <mxGeometry x="550" y="600" width="100" height="40" as="geometry" />
        </mxCell>
        <mxCell id="dyT2JQhfOkfs-Pqw11Wl-2" value="Personaje p1" style="whiteSpace=wrap;html=1;align=center;" parent="1" vertex="1">
          <mxGeometry x="390" y="620" width="100" height="40" as="geometry" />
        </mxCell>
        <mxCell id="dyT2JQhfOkfs-Pqw11Wl-3" value="Personaje_Posee_Habilidades" style="whiteSpace=wrap;html=1;align=center;" parent="1" vertex="1">
          <mxGeometry x="815" y="490" width="170" height="50" as="geometry" />
        </mxCell>
        <mxCell id="dyT2JQhfOkfs-Pqw11Wl-4" value="Habilidades" style="whiteSpace=wrap;html=1;align=center;" parent="1" vertex="1">
          <mxGeometry x="1140" y="395" width="100" height="40" as="geometry" />
        </mxCell>
        <mxCell id="dyT2JQhfOkfs-Pqw11Wl-5" value="Personaje_Posee_Items ppi" style="whiteSpace=wrap;html=1;align=center;" parent="1" vertex="1">
          <mxGeometry x="141" y="610" width="160" height="40" as="geometry" />
        </mxCell>
        <mxCell id="dyT2JQhfOkfs-Pqw11Wl-6" value="Items it" style="whiteSpace=wrap;html=1;align=center;" parent="1" vertex="1">
          <mxGeometry x="-65" y="650" width="100" height="40" as="geometry" />
        </mxCell>
        <mxCell id="dyT2JQhfOkfs-Pqw11Wl-7" value="Item_Reliquia ir" style="whiteSpace=wrap;html=1;align=center;" parent="1" vertex="1">
          <mxGeometry x="-370" y="620" width="100" height="40" as="geometry" />
        </mxCell>
        <mxCell id="dyT2JQhfOkfs-Pqw11Wl-11" value="⨝&amp;nbsp;&lt;font size=&quot;1&quot;&gt;j1.email=p1.email_Jugador&lt;/font&gt;" style="text;html=1;align=center;verticalAlign=middle;whiteSpace=wrap;rounded=0;" parent="1" vertex="1">
          <mxGeometry x="450" y="190" width="60" height="30" as="geometry" />
        </mxCell>
        <mxCell id="dyT2JQhfOkfs-Pqw11Wl-12" value="" style="endArrow=none;html=1;rounded=0;exitX=0.75;exitY=0;exitDx=0;exitDy=0;entryX=0.5;entryY=1;entryDx=0;entryDy=0;" parent="1" source="dyT2JQhfOkfs-Pqw11Wl-11" target="dyT2JQhfOkfs-Pqw11Wl-14" edge="1">
          <mxGeometry relative="1" as="geometry">
            <mxPoint x="1090" y="160" as="sourcePoint" />
            <mxPoint x="1100" y="190" as="targetPoint" />
          </mxGeometry>
        </mxCell>
        <mxCell id="dyT2JQhfOkfs-Pqw11Wl-14" value="⨝p1.email_Jugador=pph.emailJugador" style="text;html=1;align=center;verticalAlign=middle;whiteSpace=wrap;rounded=0;" parent="1" vertex="1">
          <mxGeometry x="660" y="140" width="80" height="30" as="geometry" />
        </mxCell>
        <mxCell id="dyT2JQhfOkfs-Pqw11Wl-15" value="" style="endArrow=none;html=1;rounded=0;exitX=0.75;exitY=0;exitDx=0;exitDy=0;entryX=0.5;entryY=1;entryDx=0;entryDy=0;" parent="1" source="dyT2JQhfOkfs-Pqw11Wl-14" target="dyT2JQhfOkfs-Pqw11Wl-17" edge="1">
          <mxGeometry relative="1" as="geometry">
            <mxPoint x="1050" y="250" as="sourcePoint" />
            <mxPoint x="1310" y="110" as="targetPoint" />
          </mxGeometry>
        </mxCell>
        <mxCell id="dyT2JQhfOkfs-Pqw11Wl-17" value="⨝ pphnombreHabilidad=h.nombre" style="text;html=1;align=center;verticalAlign=middle;whiteSpace=wrap;rounded=0;" parent="1" vertex="1">
          <mxGeometry x="830" y="50" width="190" height="30" as="geometry" />
        </mxCell>
        <mxCell id="dyT2JQhfOkfs-Pqw11Wl-20" value="⨝ it.nombre=ppi.nombreItem" style="text;html=1;align=center;verticalAlign=middle;whiteSpace=wrap;rounded=0;" parent="1" vertex="1">
          <mxGeometry x="-50" y="330" width="220" height="30" as="geometry" />
        </mxCell>
        <mxCell id="dyT2JQhfOkfs-Pqw11Wl-23" value="⨝ppi.nombreItem=it.nombre" style="text;html=1;align=center;verticalAlign=middle;whiteSpace=wrap;rounded=0;" parent="1" vertex="1">
          <mxGeometry x="330" y="860" width="160" height="30" as="geometry" />
        </mxCell>
        <mxCell id="dyT2JQhfOkfs-Pqw11Wl-24" value="" style="endArrow=none;html=1;rounded=0;entryX=0.5;entryY=1;entryDx=0;entryDy=0;exitX=0.463;exitY=0.019;exitDx=0;exitDy=0;exitPerimeter=0;" parent="1" source="tmOnNcEsLkjDSFXpH73o-37" target="dyT2JQhfOkfs-Pqw11Wl-26" edge="1">
          <mxGeometry relative="1" as="geometry">
            <mxPoint x="-80" y="460" as="sourcePoint" />
            <mxPoint x="-145" y="385" as="targetPoint" />
          </mxGeometry>
        </mxCell>
        <mxCell id="dyT2JQhfOkfs-Pqw11Wl-25" value="" style="endArrow=none;html=1;rounded=0;entryX=0.5;entryY=0;entryDx=0;entryDy=0;exitX=0.5;exitY=1;exitDx=0;exitDy=0;" parent="1" source="dyT2JQhfOkfs-Pqw11Wl-26" target="dyT2JQhfOkfs-Pqw11Wl-7" edge="1">
          <mxGeometry relative="1" as="geometry">
            <mxPoint x="-130" y="405" as="sourcePoint" />
            <mxPoint x="-45" y="445" as="targetPoint" />
          </mxGeometry>
        </mxCell>
        <mxCell id="dyT2JQhfOkfs-Pqw11Wl-26" value="&lt;font style=&quot;&quot;&gt;&lt;span style=&quot;background-color: transparent;&quot;&gt;&lt;span style=&quot;font-size: 14px;&quot;&gt;⨝ ir.nombre = it.nombre&lt;/span&gt;&lt;/span&gt;&lt;/font&gt;" style="text;html=1;align=center;verticalAlign=middle;whiteSpace=wrap;rounded=0;" parent="1" vertex="1">
          <mxGeometry x="-235" y="405" width="170" height="30" as="geometry" />
        </mxCell>
        <mxCell id="dyT2JQhfOkfs-Pqw11Wl-28" value="" style="endArrow=none;html=1;rounded=0;exitX=0.5;exitY=0;exitDx=0;exitDy=0;entryX=0.5;entryY=1;entryDx=0;entryDy=0;" parent="1" source="dyT2JQhfOkfs-Pqw11Wl-26" target="dyT2JQhfOkfs-Pqw11Wl-20" edge="1">
          <mxGeometry relative="1" as="geometry">
            <mxPoint x="-145" y="355" as="sourcePoint" />
            <mxPoint x="-140" y="305" as="targetPoint" />
          </mxGeometry>
        </mxCell>
        <mxCell id="dyT2JQhfOkfs-Pqw11Wl-29" value="π(j1.nombre, j1.email)" style="text;html=1;align=center;verticalAlign=middle;resizable=0;points=[];autosize=1;strokeColor=none;fillColor=none;" parent="1" vertex="1">
          <mxGeometry x="855" y="-60" width="140" height="30" as="geometry" />
        </mxCell>
        <mxCell id="tmOnNcEsLkjDSFXpH73o-1" value="&lt;span style=&quot;font-family: &amp;quot;Google Sans&amp;quot;, Arial, sans-serif; text-align: start; text-wrap-mode: wrap;&quot;&gt;&lt;font style=&quot;color: light-dark(rgb(26, 26, 26), rgb(255, 255, 255));&quot;&gt;&lt;span style=&quot;font-size: 18px;&quot;&gt;σ&lt;/span&gt;&lt;font style=&quot;line-height: 150%;&quot; size=&quot;1&quot;&gt;EXTRACT(YEAR FROM fecha_registro)=2024&lt;/font&gt;&lt;/font&gt;&lt;/span&gt;" style="text;html=1;align=center;verticalAlign=middle;resizable=0;points=[];autosize=1;strokeColor=none;fillColor=none;" parent="1" vertex="1">
          <mxGeometry x="450" y="510" width="240" height="40" as="geometry" />
        </mxCell>
        <mxCell id="tmOnNcEsLkjDSFXpH73o-4" value="" style="endArrow=none;html=1;rounded=0;exitX=0.478;exitY=1.105;exitDx=0;exitDy=0;exitPerimeter=0;entryX=0.5;entryY=0;entryDx=0;entryDy=0;" parent="1" source="tmOnNcEsLkjDSFXpH73o-1" target="dyT2JQhfOkfs-Pqw11Wl-1" edge="1">
          <mxGeometry width="50" height="50" relative="1" as="geometry">
            <mxPoint x="910" y="560" as="sourcePoint" />
            <mxPoint x="960" y="510" as="targetPoint" />
          </mxGeometry>
        </mxCell>
        <mxCell id="tmOnNcEsLkjDSFXpH73o-5" value="&lt;span style=&quot;font-family: &amp;quot;Google Sans&amp;quot;, Arial, sans-serif; text-align: start; text-wrap-mode: wrap; font-size: 18px;&quot;&gt;σ&lt;/span&gt;&lt;font style=&quot;font-family: &amp;quot;Google Sans&amp;quot;, Arial, sans-serif; text-align: start; text-wrap-mode: wrap; line-height: 15px;&quot; size=&quot;1&quot;&gt;region=&#39;AMERICA&#39;&lt;/font&gt;" style="text;html=1;align=center;verticalAlign=middle;resizable=0;points=[];autosize=1;strokeColor=none;fillColor=none;" parent="1" vertex="1">
          <mxGeometry x="465" y="430" width="120" height="40" as="geometry" />
        </mxCell>
        <mxCell id="tmOnNcEsLkjDSFXpH73o-6" value="" style="endArrow=none;html=1;rounded=0;exitX=0.522;exitY=-0.055;exitDx=0;exitDy=0;exitPerimeter=0;entryX=0.497;entryY=1.005;entryDx=0;entryDy=0;entryPerimeter=0;" parent="1" source="tmOnNcEsLkjDSFXpH73o-1" target="tmOnNcEsLkjDSFXpH73o-5" edge="1">
          <mxGeometry width="50" height="50" relative="1" as="geometry">
            <mxPoint x="910" y="560" as="sourcePoint" />
            <mxPoint x="960" y="510" as="targetPoint" />
          </mxGeometry>
        </mxCell>
        <mxCell id="tmOnNcEsLkjDSFXpH73o-8" value="&lt;font style=&quot;font-size: 18px;&quot;&gt;π&lt;/font&gt;(nombre, email)" style="text;html=1;align=center;verticalAlign=middle;resizable=0;points=[];autosize=1;strokeColor=none;fillColor=none;" parent="1" vertex="1">
          <mxGeometry x="430" y="320" width="120" height="40" as="geometry" />
        </mxCell>
        <mxCell id="tmOnNcEsLkjDSFXpH73o-9" value="" style="endArrow=none;html=1;rounded=0;exitX=0.46;exitY=0.985;exitDx=0;exitDy=0;exitPerimeter=0;entryX=0.508;entryY=0.044;entryDx=0;entryDy=0;entryPerimeter=0;" parent="1" source="tmOnNcEsLkjDSFXpH73o-8" target="tmOnNcEsLkjDSFXpH73o-5" edge="1">
          <mxGeometry width="50" height="50" relative="1" as="geometry">
            <mxPoint x="1770" y="540" as="sourcePoint" />
            <mxPoint x="1498.6" y="532.5999999999999" as="targetPoint" />
          </mxGeometry>
        </mxCell>
        <mxCell id="tmOnNcEsLkjDSFXpH73o-11" value="&lt;span style=&quot;font-family: &amp;quot;Google Sans&amp;quot;, Arial, sans-serif; text-align: start; text-wrap-mode: wrap; font-size: 18px;&quot;&gt;σ&lt;/span&gt;&lt;font style=&quot;font-family: &amp;quot;Google Sans&amp;quot;, Arial, sans-serif; text-align: start; text-wrap-mode: wrap; line-height: 15px;&quot; size=&quot;1&quot;&gt;especie!=&#39;Humano&#39;&lt;/font&gt;" style="text;html=1;align=center;verticalAlign=middle;resizable=0;points=[];autosize=1;strokeColor=none;fillColor=none;" parent="1" vertex="1">
          <mxGeometry x="345" y="540" width="120" height="40" as="geometry" />
        </mxCell>
        <mxCell id="tmOnNcEsLkjDSFXpH73o-12" value="" style="endArrow=none;html=1;rounded=0;exitX=0.5;exitY=0;exitDx=0;exitDy=0;entryX=0.5;entryY=0.985;entryDx=0;entryDy=0;entryPerimeter=0;" parent="1" source="dyT2JQhfOkfs-Pqw11Wl-2" target="tmOnNcEsLkjDSFXpH73o-11" edge="1">
          <mxGeometry width="50" height="50" relative="1" as="geometry">
            <mxPoint x="835" y="480" as="sourcePoint" />
            <mxPoint x="885" y="430" as="targetPoint" />
          </mxGeometry>
        </mxCell>
        <mxCell id="tmOnNcEsLkjDSFXpH73o-13" value="&lt;span style=&quot;font-family: &amp;quot;Google Sans&amp;quot;, Arial, sans-serif; text-align: start; text-wrap-mode: wrap; font-size: 18px;&quot;&gt;σ&lt;/span&gt;&lt;font style=&quot;font-family: &amp;quot;Google Sans&amp;quot;, Arial, sans-serif; text-align: start; text-wrap-mode: wrap; line-height: 15px;&quot; size=&quot;1&quot;&gt;agilidad&amp;gt;=50&lt;/font&gt;" style="text;html=1;align=center;verticalAlign=middle;resizable=0;points=[];autosize=1;strokeColor=none;fillColor=none;" parent="1" vertex="1">
          <mxGeometry x="335" y="470" width="90" height="40" as="geometry" />
        </mxCell>
        <mxCell id="tmOnNcEsLkjDSFXpH73o-14" value="&lt;span style=&quot;font-family: &amp;quot;Google Sans&amp;quot;, Arial, sans-serif; text-align: start; text-wrap-mode: wrap; font-size: 18px;&quot;&gt;σ&lt;/span&gt;&lt;font style=&quot;font-family: &amp;quot;Google Sans&amp;quot;, Arial, sans-serif; text-align: start; text-wrap-mode: wrap; line-height: 15px;&quot; size=&quot;1&quot;&gt;resistencia&amp;gt;=50&lt;/font&gt;" style="text;html=1;align=center;verticalAlign=middle;resizable=0;points=[];autosize=1;strokeColor=none;fillColor=none;" parent="1" vertex="1">
          <mxGeometry x="295" y="400" width="110" height="40" as="geometry" />
        </mxCell>
        <mxCell id="tmOnNcEsLkjDSFXpH73o-15" value="" style="endArrow=none;html=1;rounded=0;entryX=0.529;entryY=0.995;entryDx=0;entryDy=0;entryPerimeter=0;exitX=0.525;exitY=0.044;exitDx=0;exitDy=0;exitPerimeter=0;" parent="1" source="tmOnNcEsLkjDSFXpH73o-11" target="tmOnNcEsLkjDSFXpH73o-13" edge="1">
          <mxGeometry width="50" height="50" relative="1" as="geometry">
            <mxPoint x="396.0796812749004" y="540" as="sourcePoint" />
            <mxPoint x="385" y="330" as="targetPoint" />
          </mxGeometry>
        </mxCell>
        <mxCell id="tmOnNcEsLkjDSFXpH73o-16" value="" style="endArrow=none;html=1;rounded=0;entryX=0.462;entryY=1.025;entryDx=0;entryDy=0;entryPerimeter=0;" parent="1" source="tmOnNcEsLkjDSFXpH73o-13" target="tmOnNcEsLkjDSFXpH73o-14" edge="1">
          <mxGeometry width="50" height="50" relative="1" as="geometry">
            <mxPoint x="335" y="380" as="sourcePoint" />
            <mxPoint x="385" y="330" as="targetPoint" />
          </mxGeometry>
        </mxCell>
        <mxCell id="tmOnNcEsLkjDSFXpH73o-17" value="&lt;font style=&quot;font-size: 18px;&quot;&gt;π&lt;/font&gt;(email_Jugador)" style="text;html=1;align=center;verticalAlign=middle;resizable=0;points=[];autosize=1;strokeColor=none;fillColor=none;" parent="1" vertex="1">
          <mxGeometry x="260" y="340" width="120" height="40" as="geometry" />
        </mxCell>
        <mxCell id="tmOnNcEsLkjDSFXpH73o-18" value="" style="endArrow=none;html=1;rounded=0;exitX=0.444;exitY=0.055;exitDx=0;exitDy=0;exitPerimeter=0;entryX=0.458;entryY=1.044;entryDx=0;entryDy=0;entryPerimeter=0;" parent="1" source="tmOnNcEsLkjDSFXpH73o-14" target="tmOnNcEsLkjDSFXpH73o-17" edge="1">
          <mxGeometry width="50" height="50" relative="1" as="geometry">
            <mxPoint x="595" y="520" as="sourcePoint" />
            <mxPoint x="335.48" y="374.7999999999997" as="targetPoint" />
          </mxGeometry>
        </mxCell>
        <mxCell id="tmOnNcEsLkjDSFXpH73o-21" value="&lt;font style=&quot;font-size: 18px;&quot;&gt;π&lt;/font&gt;(emailJugador, nombreHabilidad)" style="text;html=1;align=center;verticalAlign=middle;resizable=0;points=[];autosize=1;strokeColor=none;fillColor=none;" parent="1" vertex="1">
          <mxGeometry x="710" y="280" width="210" height="40" as="geometry" />
        </mxCell>
        <mxCell id="tmOnNcEsLkjDSFXpH73o-22" value="" style="endArrow=none;html=1;rounded=0;exitX=0.5;exitY=0;exitDx=0;exitDy=0;entryX=0.474;entryY=1.065;entryDx=0;entryDy=0;entryPerimeter=0;" parent="1" source="dyT2JQhfOkfs-Pqw11Wl-3" target="tmOnNcEsLkjDSFXpH73o-21" edge="1">
          <mxGeometry width="50" height="50" relative="1" as="geometry">
            <mxPoint x="1490" y="450" as="sourcePoint" />
            <mxPoint x="1540" y="400" as="targetPoint" />
          </mxGeometry>
        </mxCell>
        <mxCell id="tmOnNcEsLkjDSFXpH73o-23" value="" style="endArrow=none;html=1;rounded=0;exitX=0.382;exitY=-0.095;exitDx=0;exitDy=0;exitPerimeter=0;entryX=0.5;entryY=1;entryDx=0;entryDy=0;" parent="1" source="tmOnNcEsLkjDSFXpH73o-21" target="dyT2JQhfOkfs-Pqw11Wl-14" edge="1">
          <mxGeometry width="50" height="50" relative="1" as="geometry">
            <mxPoint x="1350" y="370" as="sourcePoint" />
            <mxPoint x="1400" y="320" as="targetPoint" />
          </mxGeometry>
        </mxCell>
        <mxCell id="tmOnNcEsLkjDSFXpH73o-25" value="&lt;span style=&quot;font-family: &amp;quot;Google Sans&amp;quot;, Arial, sans-serif; text-align: start; text-wrap-mode: wrap; font-size: 18px;&quot;&gt;σ&lt;/span&gt;&lt;font style=&quot;font-family: &amp;quot;Google Sans&amp;quot;, Arial, sans-serif; text-align: start; text-wrap-mode: wrap; line-height: 15px;&quot; size=&quot;1&quot;&gt;clasificacion=&#39;Magia&#39;&lt;/font&gt;" style="text;html=1;align=center;verticalAlign=middle;resizable=0;points=[];autosize=1;strokeColor=none;fillColor=none;" parent="1" vertex="1">
          <mxGeometry x="1070" y="280" width="130" height="40" as="geometry" />
        </mxCell>
        <mxCell id="tmOnNcEsLkjDSFXpH73o-26" value="" style="endArrow=none;html=1;rounded=0;exitX=0.5;exitY=0;exitDx=0;exitDy=0;entryX=0.502;entryY=1.035;entryDx=0;entryDy=0;entryPerimeter=0;" parent="1" source="dyT2JQhfOkfs-Pqw11Wl-4" target="tmOnNcEsLkjDSFXpH73o-25" edge="1">
          <mxGeometry width="50" height="50" relative="1" as="geometry">
            <mxPoint x="1520" y="220" as="sourcePoint" />
            <mxPoint x="1570" y="170" as="targetPoint" />
          </mxGeometry>
        </mxCell>
        <mxCell id="tmOnNcEsLkjDSFXpH73o-27" value="&lt;font style=&quot;font-size: 18px;&quot;&gt;π&lt;/font&gt;(nombre)" style="text;html=1;align=center;verticalAlign=middle;resizable=0;points=[];autosize=1;strokeColor=none;fillColor=none;" parent="1" vertex="1">
          <mxGeometry x="1020" y="190" width="80" height="40" as="geometry" />
        </mxCell>
        <mxCell id="tmOnNcEsLkjDSFXpH73o-28" value="" style="endArrow=none;html=1;rounded=0;exitX=0.477;exitY=0.035;exitDx=0;exitDy=0;exitPerimeter=0;entryX=0.522;entryY=1.065;entryDx=0;entryDy=0;entryPerimeter=0;" parent="1" source="tmOnNcEsLkjDSFXpH73o-25" target="tmOnNcEsLkjDSFXpH73o-27" edge="1">
          <mxGeometry width="50" height="50" relative="1" as="geometry">
            <mxPoint x="1260" y="260" as="sourcePoint" />
            <mxPoint x="1310" y="210" as="targetPoint" />
          </mxGeometry>
        </mxCell>
        <mxCell id="tmOnNcEsLkjDSFXpH73o-29" value="" style="endArrow=none;html=1;rounded=0;entryX=0.484;entryY=0.015;entryDx=0;entryDy=0;entryPerimeter=0;exitX=0.5;exitY=1;exitDx=0;exitDy=0;" parent="1" source="dyT2JQhfOkfs-Pqw11Wl-17" target="tmOnNcEsLkjDSFXpH73o-27" edge="1">
          <mxGeometry width="50" height="50" relative="1" as="geometry">
            <mxPoint x="1260" y="260" as="sourcePoint" />
            <mxPoint x="1310" y="210" as="targetPoint" />
          </mxGeometry>
        </mxCell>
        <mxCell id="tmOnNcEsLkjDSFXpH73o-31" value="&lt;font style=&quot;font-size: 18px;&quot;&gt;π&lt;/font&gt;(emailJugador,nombreItem)" style="text;html=1;align=center;verticalAlign=middle;resizable=0;points=[];autosize=1;strokeColor=none;fillColor=none;" parent="1" vertex="1">
          <mxGeometry x="60" y="450" width="180" height="40" as="geometry" />
        </mxCell>
        <mxCell id="tmOnNcEsLkjDSFXpH73o-32" value="" style="endArrow=none;html=1;rounded=0;exitX=0.5;exitY=0;exitDx=0;exitDy=0;entryX=0.506;entryY=0.985;entryDx=0;entryDy=0;entryPerimeter=0;" parent="1" source="dyT2JQhfOkfs-Pqw11Wl-5" target="tmOnNcEsLkjDSFXpH73o-31" edge="1">
          <mxGeometry width="50" height="50" relative="1" as="geometry">
            <mxPoint x="1200" y="150" as="sourcePoint" />
            <mxPoint x="1250" y="100" as="targetPoint" />
          </mxGeometry>
        </mxCell>
        <mxCell id="tmOnNcEsLkjDSFXpH73o-33" value="" style="endArrow=none;html=1;rounded=0;exitX=0.5;exitY=1;exitDx=0;exitDy=0;entryX=0.483;entryY=-0.075;entryDx=0;entryDy=0;entryPerimeter=0;" parent="1" source="dyT2JQhfOkfs-Pqw11Wl-20" target="tmOnNcEsLkjDSFXpH73o-31" edge="1">
          <mxGeometry width="50" height="50" relative="1" as="geometry">
            <mxPoint x="1200" y="150" as="sourcePoint" />
            <mxPoint x="1250" y="100" as="targetPoint" />
          </mxGeometry>
        </mxCell>
        <mxCell id="tmOnNcEsLkjDSFXpH73o-34" value="&lt;span style=&quot;font-family: &amp;quot;Google Sans&amp;quot;, Arial, sans-serif; text-align: start; text-wrap-mode: wrap; font-size: 18px;&quot;&gt;σ&lt;/span&gt;&lt;font style=&quot;font-family: &amp;quot;Google Sans&amp;quot;, Arial, sans-serif; text-align: start; text-wrap-mode: wrap; line-height: 15px;&quot; size=&quot;1&quot;&gt;rareza=&#39;Legendaria&#39;&lt;/font&gt;" style="text;html=1;align=center;verticalAlign=middle;resizable=0;points=[];autosize=1;strokeColor=none;fillColor=none;" parent="1" vertex="1">
          <mxGeometry x="-130" y="540" width="120" height="40" as="geometry" />
        </mxCell>
        <mxCell id="tmOnNcEsLkjDSFXpH73o-36" value="" style="endArrow=none;html=1;rounded=0;entryX=0.52;entryY=1.039;entryDx=0;entryDy=0;entryPerimeter=0;exitX=0.5;exitY=0;exitDx=0;exitDy=0;" parent="1" source="dyT2JQhfOkfs-Pqw11Wl-6" target="tmOnNcEsLkjDSFXpH73o-34" edge="1">
          <mxGeometry width="50" height="50" relative="1" as="geometry">
            <mxPoint x="-280" y="635" as="sourcePoint" />
            <mxPoint x="-230" y="585" as="targetPoint" />
          </mxGeometry>
        </mxCell>
        <mxCell id="tmOnNcEsLkjDSFXpH73o-37" value="&lt;font style=&quot;font-size: 18px;&quot;&gt;π&lt;/font&gt;(nombre)" style="text;html=1;align=center;verticalAlign=middle;resizable=0;points=[];autosize=1;strokeColor=none;fillColor=none;" parent="1" vertex="1">
          <mxGeometry x="-140" y="460" width="80" height="40" as="geometry" />
        </mxCell>
        <mxCell id="tmOnNcEsLkjDSFXpH73o-38" value="" style="endArrow=none;html=1;rounded=0;entryX=0.465;entryY=1.094;entryDx=0;entryDy=0;entryPerimeter=0;exitX=0.505;exitY=0.083;exitDx=0;exitDy=0;exitPerimeter=0;" parent="1" source="tmOnNcEsLkjDSFXpH73o-34" target="tmOnNcEsLkjDSFXpH73o-37" edge="1">
          <mxGeometry width="50" height="50" relative="1" as="geometry">
            <mxPoint x="-280" y="635" as="sourcePoint" />
            <mxPoint x="-230" y="585" as="targetPoint" />
          </mxGeometry>
        </mxCell>
        <mxCell id="A01Pc4tJOuuBW_noEZ7V-1" value="⨝&amp;nbsp;&lt;font size=&quot;1&quot;&gt;ppi.emailJugador=p1.email_Jugador&lt;/font&gt;" style="text;html=1;align=center;verticalAlign=middle;whiteSpace=wrap;rounded=0;" vertex="1" parent="1">
          <mxGeometry x="190" y="240" width="140" height="30" as="geometry" />
        </mxCell>
        <mxCell id="A01Pc4tJOuuBW_noEZ7V-2" value="" style="endArrow=none;html=1;rounded=0;exitX=0.492;exitY=-0.031;exitDx=0;exitDy=0;exitPerimeter=0;entryX=0.5;entryY=1;entryDx=0;entryDy=0;" edge="1" parent="1" source="tmOnNcEsLkjDSFXpH73o-17" target="A01Pc4tJOuuBW_noEZ7V-1">
          <mxGeometry width="50" height="50" relative="1" as="geometry">
            <mxPoint x="570" y="520" as="sourcePoint" />
            <mxPoint x="620" y="470" as="targetPoint" />
          </mxGeometry>
        </mxCell>
        <mxCell id="A01Pc4tJOuuBW_noEZ7V-3" value="" style="endArrow=none;html=1;rounded=0;exitX=0.5;exitY=1;exitDx=0;exitDy=0;entryX=0.5;entryY=0;entryDx=0;entryDy=0;" edge="1" parent="1" source="A01Pc4tJOuuBW_noEZ7V-1" target="dyT2JQhfOkfs-Pqw11Wl-20">
          <mxGeometry width="50" height="50" relative="1" as="geometry">
            <mxPoint x="410" y="460" as="sourcePoint" />
            <mxPoint x="460" y="410" as="targetPoint" />
          </mxGeometry>
        </mxCell>
        <mxCell id="A01Pc4tJOuuBW_noEZ7V-4" value="" style="endArrow=none;html=1;rounded=0;exitX=0.5;exitY=1;exitDx=0;exitDy=0;entryX=0.469;entryY=0.067;entryDx=0;entryDy=0;entryPerimeter=0;" edge="1" parent="1" source="dyT2JQhfOkfs-Pqw11Wl-11" target="tmOnNcEsLkjDSFXpH73o-8">
          <mxGeometry width="50" height="50" relative="1" as="geometry">
            <mxPoint x="500" y="420" as="sourcePoint" />
            <mxPoint x="550" y="370" as="targetPoint" />
          </mxGeometry>
        </mxCell>
        <mxCell id="A01Pc4tJOuuBW_noEZ7V-5" value="" style="endArrow=none;html=1;rounded=0;exitX=0.5;exitY=1;exitDx=0;exitDy=0;entryX=0.5;entryY=0;entryDx=0;entryDy=0;" edge="1" parent="1" source="dyT2JQhfOkfs-Pqw11Wl-11" target="A01Pc4tJOuuBW_noEZ7V-1">
          <mxGeometry width="50" height="50" relative="1" as="geometry">
            <mxPoint x="500" y="420" as="sourcePoint" />
            <mxPoint x="550" y="370" as="targetPoint" />
          </mxGeometry>
        </mxCell>
        <mxCell id="A01Pc4tJOuuBW_noEZ7V-6" value="" style="endArrow=none;html=1;rounded=0;exitX=0.5;exitY=0;exitDx=0;exitDy=0;entryX=0.519;entryY=1.049;entryDx=0;entryDy=0;entryPerimeter=0;" edge="1" parent="1" source="dyT2JQhfOkfs-Pqw11Wl-17" target="dyT2JQhfOkfs-Pqw11Wl-29">
          <mxGeometry width="50" height="50" relative="1" as="geometry">
            <mxPoint x="950" as="sourcePoint" />
            <mxPoint x="1000" y="-50" as="targetPoint" />
          </mxGeometry>
        </mxCell>
      </root>
    </mxGraphModel>
  </diagram>
</mxfile>
